<svg width="297" height="297" viewBox="0 0 297 297" fill="none" xmlns="http://www.w3.org/2000/svg">
<rect width="297" height="297" rx="100" fill="#F1E5BC"/>
<g clip-path="url(#clip0_23_18)">
<path fill-rule="evenodd" clip-rule="evenodd" d="M80.8669 158.316C72.2399 176.009 65.1921 194.319 58.5613 212.878L58.5633 212.876C60.9462 214.216 61.8226 214.029 62.7849 212.079C63.7933 210.034 64.6702 207.923 65.5451 205.815L65.6222 205.63C72.3833 189.354 79.3695 173.184 87.5705 157.561C88.459 155.87 89.5475 154.905 91.4407 154.384C102.275 151.396 113.065 148.248 123.882 145.196C125.917 144.622 128.003 144.233 130.407 143.681C130.407 144.969 130.457 145.704 130.4 146.43C129.236 161.144 127.96 175.848 126.948 190.572C126.652 194.901 126.906 199.296 127.258 203.633C127.531 206.983 129.033 207.788 131.832 206.741C131.515 185.123 134.526 163.806 136.79 142.419C140.189 140.955 143.479 141.093 146.728 141.161C149.422 141.216 150.792 142.312 151.225 144.997C149.376 156.946 154.941 152.185 154.869 154.354C155.043 150.538 156.963 148.557 156.731 144.749C156.531 141.454 154.215 139.343 151.06 138.846C147.953 138.357 144.744 138.466 141.578 138.418C140.289 138.399 138.995 138.661 137.265 138.84C137.545 136.677 137.785 134.967 137.988 133.252C139.643 119.264 141.356 105.281 142.882 91.2788C143.178 88.5624 142.92 85.7422 142.573 83.0127C142.227 80.2913 140.666 79.2382 137.897 79.0314C135.002 78.8156 132.525 79.799 130.599 81.7952C127.341 85.1703 124.071 88.5705 121.176 92.2512C107.428 109.734 95.9542 128.672 85.9579 148.492C84.0062 152.362 81.8787 155.283 77.336 155.77C76.6827 155.839 76.0556 156.158 75.4205 156.373C70.2578 158.117 65.0861 159.833 59.9446 161.636C58.8672 162.013 57.9049 162.716 56.8892 163.269L57.1921 164.129C58.2058 164.023 59.267 164.073 60.2253 163.783C65.0406 162.325 69.8206 160.754 74.6289 159.274C76.504 158.696 78.4204 158.252 80.3177 157.748C80.5004 157.937 80.6842 158.126 80.8669 158.316ZM91.3983 151.402C93.9125 140.765 128.673 88.5271 136.529 83.9488C136.529 84.5693 136.543 85.1377 136.557 85.6702C136.584 86.7234 136.607 87.6365 136.507 88.5362C136.103 92.197 135.681 95.8558 135.258 99.5144L135.076 101.081L135.076 101.083C134.499 106.06 133.923 111.037 133.383 116.018C132.916 120.335 132.505 124.658 132.094 128.981L132.094 128.986C131.847 131.584 131.6 134.182 131.341 136.779C131.262 137.57 131.128 138.356 130.998 139.121C130.94 139.463 130.882 139.801 130.831 140.133C120.189 143.174 109.7 146.172 99.1251 149.194L99.0494 149.216L98.9988 149.23L91.3983 151.402Z" fill="#201C15"/>
<path d="M222.409 99.7921C221.739 100.911 221.195 102.266 220.274 103.283C214.926 109.187 209.702 115.225 204.035 120.812C194.997 129.723 185.364 137.994 174.263 144.292C169.836 146.804 165.039 148.663 160.412 150.82C159.769 151.12 159.131 151.429 157.946 151.993C159.735 152.861 161.009 153.418 162.227 154.078C171.878 159.32 181.525 164.571 191.161 169.843C203.84 176.779 216.943 182.758 230.702 187.231C233.485 188.136 236.325 188.898 239.31 187.78C240.078 187.493 241.048 187.737 242.044 187.737C242.016 189.83 240.625 190.004 239.511 190.36C236.157 191.433 232.827 190.748 229.593 189.867C217.4 186.546 205.873 181.454 194.652 175.793C182.833 169.831 171.347 163.211 159.708 156.891C158.606 156.293 157.461 155.772 156.32 155.249C156.116 155.156 155.834 155.236 155.326 155.236C155.106 155.893 154.812 156.56 154.657 157.257C150.355 176.659 146.059 196.064 141.782 215.473C141.161 218.291 140.178 218.798 137.177 217.208C137.562 214.29 137.79 211.135 138.415 208.061C141.887 190.971 145.459 173.902 148.983 156.823C149.178 155.879 149.245 154.907 149.381 153.872C146.765 153.137 143.803 154.298 141.839 151.463C144.004 148.479 147.142 149.388 150.271 149.429C150.582 148.514 150.993 147.622 151.19 146.684C155.704 125.209 161.902 104.257 170.577 84.0688C171.107 82.8382 171.701 81.6268 172.368 80.4648C173.322 78.7995 173.786 78.6865 176.233 79.4652C176.008 80.605 175.91 81.8407 175.518 82.9744C168.442 103.454 163.42 124.518 157.641 145.367C157.451 146.053 157.422 146.783 157.232 148.081C158.5 147.546 159.313 147.249 160.087 146.871C169.433 142.303 177.623 136.02 185.633 129.501C196.712 120.484 207.348 110.983 216.929 100.357C217.484 99.7407 218.107 99.1365 218.811 98.7118C220.141 97.9099 220.902 98.152 222.408 99.7931L222.409 99.7921Z" fill="#201C15"/>
</g>
<defs>
<clipPath id="clip0_23_18">
<rect width="187.867" height="139" fill="white" transform="translate(55 79)"/>
</clipPath>
</defs>
</svg>
